<svg xmlns="http://www.w3.org/2000/svg" width="1280" height="480" viewBox="0 0 1280 480" fill="none" role="img">
  <defs>
    <linearGradient id="bg" x1="0" y1="0" x2="1280" y2="480" gradientUnits="userSpaceOnUse">
      <stop stop-color="#07131F"/>
      <stop offset="0.55" stop-color="#0B1F33"/>
      <stop offset="1" stop-color="#0F3D3A"/>
    </linearGradient>
    <linearGradient id="accent" x1="720" y1="80" x2="1180" y2="400" gradientUnits="userSpaceOnUse">
      <stop stop-color="#14B8A6" stop-opacity="0.35"/>
      <stop offset="1" stop-color="#0EA5E9" stop-opacity="0.08"/>
    </linearGradient>
    <filter id="soft" x="-20%" y="-20%" width="140%" height="140%">
      <feGaussianBlur stdDeviation="24"/>
    </filter>
  </defs>
  <rect width="1280" height="480" fill="url(#bg)"/>
  <circle cx="980" cy="120" r="160" fill="url(#accent)" filter="url(#soft)"/>
  <circle cx="1100" cy="360" r="120" fill="#14B8A6" fill-opacity="0.12" filter="url(#soft)"/>

  <!-- grid -->
  <g stroke="#FFFFFF" stroke-opacity="0.06">
    <path d="M720 40v400M800 40v400M880 40v400M960 40v400M1040 40v400M1120 40v400M1200 40v400"/>
    <path d="M700 80h540M700 160h540M700 240h540M700 320h540M700 400h540"/>
  </g>

  <!-- card mock -->
  <rect x="760" y="96" width="420" height="288" rx="20" fill="#0F172A" stroke="#334155" stroke-opacity="0.8"/>
  <rect x="788" y="124" width="120" height="14" rx="7" fill="#14B8A6" fill-opacity="0.9"/>
  <rect x="788" y="156" width="220" height="10" rx="5" fill="#64748B" fill-opacity="0.6"/>
  <rect x="788" y="196" width="364" height="44" rx="12" fill="#1E293B"/>
  <rect x="800" y="208" width="80" height="20" rx="6" fill="#0F766E"/>
  <rect x="896" y="210" width="140" height="16" rx="4" fill="#94A3B8" fill-opacity="0.5"/>
  <rect x="788" y="256" width="364" height="44" rx="12" fill="#1E293B"/>
  <rect x="800" y="268" width="80" height="20" rx="6" fill="#0369A1"/>
  <rect x="896" y="270" width="160" height="16" rx="4" fill="#94A3B8" fill-opacity="0.5"/>
  <rect x="788" y="316" width="364" height="44" rx="12" fill="#1E293B"/>
  <rect x="800" y="328" width="80" height="20" rx="6" fill="#B45309"/>
  <rect x="896" y="330" width="120" height="16" rx="4" fill="#94A3B8" fill-opacity="0.5"/>

  <!-- left copy blocks (visual only) -->
  <rect x="72" y="120" width="220" height="22" rx="8" fill="#F8FAFC" fill-opacity="0.95"/>
  <rect x="72" y="160" width="520" height="16" rx="6" fill="#94A3B8" fill-opacity="0.55"/>
  <rect x="72" y="188" width="460" height="16" rx="6" fill="#94A3B8" fill-opacity="0.35"/>
  <rect x="72" y="240" width="140" height="40" rx="12" fill="#14B8A6"/>
  <rect x="228" y="240" width="140" height="40" rx="12" fill="#1E293B" stroke="#334155"/>
  <text x="72" y="92" fill="#5EEAD4" font-family="Segoe UI, Helvetica, Arial, sans-serif" font-size="18" font-weight="600" letter-spacing="3">NETLEDGER</text>
  <text x="72" y="138" fill="#F8FAFC" font-family="Segoe UI, Helvetica, Arial, sans-serif" font-size="42" font-weight="700">IP Address Control</text>
  <text x="72" y="178" fill="#94A3B8" font-family="Segoe UI, Helvetica, Arial, sans-serif" font-size="18">Operational clarity for every IPv4 address in your network.</text>
</svg>
